<?xml version="1.0" ?><!DOCTYPE svg  PUBLIC '-//W3C//DTD SVG 1.1//EN'  'http://www.w3.org/Graphics/SVG/1.1/DTD/svg11.dtd'><svg enable-background="new 0 0 64 64" height="64px" id="Layer_1" version="1.1" viewBox="0 0 64 64" width="64px" xml:space="preserve" xmlns="http://www.w3.org/2000/svg" xmlns:xlink="http://www.w3.org/1999/xlink"><g id="LinkedIn"><rect fill="#187FB8" height="38" width="12" x="3" y="22"/><rect fill="#187FB8" height="38" width="12" x="3" y="22"/><rect fill="#1267A0" height="38" width="12" x="3" y="22"/><path d="M3,43.498c3,1.202,7,2.208,12,2.985V22H3V43.498z" fill="#187FB8"/><path d="M3,26.899c3,1.203,7,2.208,12,2.985V22H3V26.899z" fill="#2499CE"/><path d="M47.864,21.527C40.939,21.527,36,25.274,36,27.902V22H22.026c0.176,3,0,38,0,38H36V39.462   c0-1.15-0.254-2.302,0.095-3.13c0.934-2.302,2.69-4.689,6.296-4.689c4.714,0,6.609,3.539,6.609,8.725V60h14V38.892   C63,27.032,56.451,21.527,47.864,21.527z" fill="#187FB8"/><path d="M47.864,21.527C40.939,21.527,36,25.274,36,27.902V22H22.026c0.176,3,0,38,0,38H36V39.462   c0-1.15-0.254-2.302,0.095-3.13c0.934-2.302,2.69-4.689,6.296-4.689c4.714,0,6.609,3.539,6.609,8.725V60h14V38.892   C63,27.032,56.451,21.527,47.864,21.527z" fill="#1267A0"/><path d="M47.864,21.527C40.939,21.527,36,25.274,36,27.902V22H22.026c0.104,2,0.084,15.168,0.05,25.574   C26.404,48.053,31,48.292,36,48.302v-8.84c0-1.15,0.026-1.381,0.026-1.381c0-3.613,2.758-6.438,6.365-6.438   c4.714,0,6.609,3.539,6.609,8.725v7.226c5-0.521,9.747-1.32,14-2.353v-6.35C63,27.032,56.451,21.527,47.864,21.527z" fill="#187FB8"/><path d="M47.864,21.527C40.939,21.527,36,25.274,36,27.902V22H22.026c0.051,1,0.072,4.418,0.077,9.014   c4.403,0.486,9.019,0.72,13.774,0.72c9.012,0,17.613-0.948,25.135-2.597C58.376,23.999,53.585,21.527,47.864,21.527z" fill="#2499CE"/><path d="M8.383,3.818C3.919,3.818,1,6.633,1,10.415C1,14.126,3.835,17,8.21,17h0.088c4.542,0,7.37-2.885,7.37-6.594   C15.583,6.625,12.841,3.818,8.383,3.818z" fill="#2499CE"/><path d="M8.383,7.419C3.919,7.419,1,6.633,1,10.415C1,14.126,3.835,17,8.21,17h0.088c4.542,0,7.37-2.885,7.37-6.594   C15.583,6.625,12.841,7.419,8.383,7.419z" fill="#187FB8"/><path d="M8.383,12.911C3.919,12.911,1,9.237,1,10.415C1,14.126,3.835,17,8.21,17h0.088   c4.542,0,7.37-2.885,7.37-6.594C15.642,9.23,12.781,12.911,8.383,12.911z" fill="#1267A0"/></g></svg>